<?xml version="1.0" encoding="iso-8859-1"?>
<!-- Generator: Adobe Illustrator 16.0.0, SVG Export Plug-In . SVG Version: 6.00 Build 0)  -->
<!DOCTYPE svg PUBLIC "-//W3C//DTD SVG 1.1//EN" "http://www.w3.org/Graphics/SVG/1.1/DTD/svg11.dtd">
<svg version="1.1" id="Capa_1" xmlns="http://www.w3.org/2000/svg" xmlns:xlink="http://www.w3.org/1999/xlink" x="0px" y="0px"
	 width="49.157px" height="49.156px" viewBox="0 0 49.157 49.156" style="enable-background:new 0 0 49.157 49.156;"
	 xml:space="preserve">
<g>
	<g id="_x39_2_76_">
		<g>
			<polygon points="29.67,15.185 29.684,15.185 31.061,17.658 32.122,17.658 32.122,13.689 31.151,13.689 31.151,16.136 
				31.139,16.136 29.762,13.689 28.7,13.689 28.7,17.658 29.67,17.658 			"/>
			<polygon points="36.045,16.768 33.862,16.768 33.862,16.014 35.807,16.014 35.807,15.212 33.862,15.212 33.862,14.518 
				35.991,14.518 35.991,13.689 32.829,13.689 32.829,17.658 36.045,17.658 			"/>
			<polygon points="37.352,17.658 38.403,17.658 38.948,14.923 38.958,14.923 39.502,17.658 40.536,17.658 41.631,13.689 
				40.598,13.689 40.036,16.591 40.026,16.591 39.442,13.689 38.469,13.689 37.885,16.591 37.874,16.591 37.313,13.689 
				36.28,13.689 			"/>
			<path d="M43.977,16.85c-0.061,0.031-0.127,0.055-0.203,0.069c-0.076,0.015-0.154,0.022-0.232,0.022
				c-0.221,0-0.398-0.045-0.531-0.134c-0.135-0.089-0.207-0.25-0.219-0.483H41.76c0,0.256,0.047,0.473,0.141,0.65
				c0.096,0.177,0.221,0.324,0.381,0.439c0.16,0.114,0.342,0.198,0.547,0.25s0.424,0.077,0.654,0.077
				c0.219,0,0.432-0.021,0.639-0.066c0.207-0.044,0.393-0.117,0.553-0.22c0.162-0.102,0.291-0.237,0.389-0.408
				c0.098-0.17,0.146-0.382,0.146-0.634c0-0.178-0.033-0.33-0.1-0.458s-0.154-0.235-0.26-0.322c-0.107-0.087-0.23-0.159-0.367-0.217
				s-0.279-0.106-0.422-0.147c-0.145-0.041-0.287-0.076-0.422-0.105c-0.139-0.029-0.262-0.063-0.371-0.101
				c-0.109-0.036-0.195-0.079-0.26-0.127c-0.066-0.049-0.098-0.111-0.098-0.189c0-0.066,0.016-0.121,0.047-0.164
				c0.031-0.042,0.07-0.077,0.119-0.103c0.047-0.026,0.102-0.045,0.16-0.056c0.061-0.011,0.117-0.017,0.172-0.017
				c0.078,0,0.156,0.008,0.234,0.024c0.078,0.018,0.146,0.044,0.207,0.081c0.061,0.037,0.109,0.086,0.146,0.147
				s0.055,0.136,0.051,0.225h1.033c0-0.222-0.045-0.414-0.139-0.575c-0.092-0.161-0.213-0.293-0.361-0.397
				c-0.146-0.104-0.316-0.181-0.508-0.23c-0.191-0.049-0.385-0.075-0.582-0.075c-0.186,0-0.375,0.022-0.566,0.067
				c-0.193,0.044-0.367,0.114-0.521,0.211c-0.156,0.097-0.283,0.222-0.381,0.375c-0.098,0.154-0.148,0.338-0.148,0.553
				c0,0.182,0.035,0.337,0.104,0.464c0.068,0.128,0.158,0.235,0.268,0.323c0.109,0.087,0.232,0.158,0.371,0.214
				s0.279,0.104,0.42,0.145c0.145,0.04,0.285,0.076,0.42,0.108c0.135,0.031,0.256,0.067,0.363,0.108
				c0.107,0.04,0.195,0.089,0.26,0.145c0.064,0.055,0.098,0.127,0.098,0.216c0,0.074-0.02,0.138-0.057,0.189
				C44.083,16.774,44.036,16.818,43.977,16.85z"/>
			<path d="M43.948,20.527c-2.074,0-4.148,0-6.225,0c-0.521,0-0.521,1.805,0,1.805c2.076,0,4.148,0,6.225,0
				C44.469,22.332,44.469,20.527,43.948,20.527z"/>
			<path d="M43.948,24.798c-2.074,0-4.148,0-6.225,0c-0.521,0-0.521,1.807,0,1.807c2.076,0,4.148,0,6.225,0
				C44.469,26.604,44.469,24.798,43.948,24.798z"/>
			<path d="M43.299,29.161c-4.635,0-9.27,0-13.902,0c-1.164,0-1.164,1.805,0,1.805c4.633,0,9.268,0,13.902,0
				C44.461,30.966,44.461,29.161,43.299,29.161z"/>
			<path d="M43.299,33.433c-4.635,0-9.27,0-13.902,0c-1.164,0-1.164,1.807,0,1.807c4.633,0,9.268,0,13.902,0
				C44.461,35.237,44.461,33.433,43.299,33.433z"/>
			<path d="M6.645,16.859c4.635,0,9.269,0,13.902,0c1.165,0,1.165-1.805,0-1.805c-4.634,0-9.268,0-13.902,0
				C5.481,15.055,5.481,16.859,6.645,16.859z"/>
			<path d="M20.548,19.327c-4.634,0-9.268,0-13.902,0c-1.164,0-1.164,1.805,0,1.805c4.635,0,9.269,0,13.902,0
				C21.712,21.131,21.712,19.327,20.548,19.327z"/>
			<path d="M20.548,24.105c-4.634,0-9.268,0-13.902,0c-1.164,0-1.164,1.806,0,1.806c4.635,0,9.269,0,13.902,0
				C21.712,25.911,21.712,24.105,20.548,24.105z"/>
			<path d="M20.548,28.378c-4.634,0-9.268,0-13.902,0c-1.164,0-1.164,1.807,0,1.807c4.635,0,9.269,0,13.902,0
				C21.712,30.184,21.712,28.378,20.548,28.378z"/>
			<path d="M20.548,32.739c-4.634,0-9.268,0-13.902,0c-1.164,0-1.164,1.807,0,1.807c4.635,0,9.269,0,13.902,0
				C21.712,34.546,21.712,32.739,20.548,32.739z"/>
			<path d="M29.135,27.225h6.77c0.244,0,0.443-0.153,0.443-0.345v-7.078c0-0.189-0.199-0.344-0.443-0.344h-6.77
				c-0.246,0-0.445,0.154-0.445,0.344v7.078C28.69,27.069,28.889,27.225,29.135,27.225z"/>
			<path d="M48.452,8.653c-0.293-0.084-7.248-2.054-11.982-2.054c-4.229,0-10.398,1.567-11.883,1.962
				c-1.452-0.398-7.428-1.962-11.652-1.962c-4.731,0-11.914,1.968-12.217,2.052L0,8.848v33.7l1.181-0.256
				c0.07-0.016,7.073-1.524,11.751-1.524c3.67,0,8.611,0.927,10.604,1.334l1.041,0.222l1.044-0.216
				c2.043-0.405,7.16-1.34,10.848-1.34c4.674,0,11.434,1.509,11.5,1.522l1.188,0.268V8.854L48.452,8.653z M23.536,40.11
				c-2.257-0.449-6.946-1.291-10.604-1.291c-3.752,0-8.735,0.887-10.984,1.326V10.339c1.931-0.493,7.35-1.793,10.984-1.793
				c3.542,0,8.621,1.233,10.604,1.751V40.11z M47.209,40.139c-2.201-0.442-7.012-1.317-10.74-1.317
				c-3.682,0-8.541,0.852-10.848,1.299V10.305c2.033-0.516,7.291-1.758,10.848-1.758c3.619,0,8.857,1.291,10.74,1.787V40.139z"/>
		</g>
	</g>
</g>
<g>
</g>
<g>
</g>
<g>
</g>
<g>
</g>
<g>
</g>
<g>
</g>
<g>
</g>
<g>
</g>
<g>
</g>
<g>
</g>
<g>
</g>
<g>
</g>
<g>
</g>
<g>
</g>
<g>
</g>
</svg>
